<?xml version="1.0" encoding="UTF-8" standalone="no"?>
<!DOCTYPE svg PUBLIC "-//W3C//DTD SVG 1.1//EN" "http://www.w3.org/Graphics/SVG/1.1/DTD/svg11.dtd">
<svg width="100%" height="100%" viewBox="0 0 626 78" version="1.1" xmlns="http://www.w3.org/2000/svg" xmlns:xlink="http://www.w3.org/1999/xlink" xml:space="preserve" xmlns:serif="http://www.serif.com/" style="fill-rule:evenodd;clip-rule:evenodd;stroke-linejoin:round;stroke-miterlimit:2;">
    <g transform="matrix(8.82718,0,0,8.82718,-1666.24,-2104.16)">
        <path d="M188.864,246.992L190.944,246.992L191.461,244.062L192.849,244.062C194.009,244.062 194.946,243.806 195.659,243.295C196.373,242.783 196.804,242.101 196.955,241.25C197.105,240.398 196.913,239.72 196.378,239.217C195.844,238.713 194.997,238.461 193.837,238.461L190.368,238.461L188.864,246.992ZM191.705,242.674L192.203,239.849L193.592,239.849C194.151,239.849 194.521,239.983 194.702,240.251C194.883,240.518 194.939,240.851 194.869,241.25C194.798,241.648 194.625,241.985 194.348,242.261C194.071,242.536 193.653,242.674 193.094,242.674L191.705,242.674Z" style="fill:white;fill-rule:nonzero;"/>
        <g transform="matrix(1.15312,0,0,1,-30.8913,-0.000516356)">
            <path d="M197.348,246.992L199.428,246.992L199.88,244.431L206.136,238.461L204.073,238.461L200.279,242.234L200.944,238.461L198.853,238.461L197.348,246.992ZM202.305,246.992L204.901,246.992L201.99,241.537L200.395,243.037L202.305,246.992Z" style="fill:white;fill-rule:nonzero;"/>
        </g>
        <path d="M205.751,246.992L207.268,246.992L208.215,241.625C208.239,241.484 208.261,241.328 208.28,241.156C208.298,240.984 208.314,240.828 208.327,240.687L208.392,240.687C208.386,240.828 208.387,240.984 208.394,241.156C208.401,241.328 208.413,241.484 208.431,241.625L209.155,246.992L210.784,246.992L213.348,241.654C213.416,241.513 213.487,241.356 213.56,241.182C213.634,241.009 213.7,240.853 213.759,240.717L213.818,240.717C213.782,240.853 213.746,241.009 213.71,241.182C213.673,241.356 213.642,241.513 213.618,241.654L212.676,246.992L214.756,246.992L216.261,238.461L213.524,238.461L211.09,243.629C211.023,243.765 210.958,243.9 210.895,244.033C210.833,244.166 210.77,244.312 210.707,244.472L210.666,244.472C210.659,244.312 210.646,244.166 210.629,244.033C210.611,243.9 210.591,243.765 210.568,243.629L209.874,238.461L207.255,238.461L205.751,246.992Z" style="fill:white;fill-rule:nonzero;"/>
        <g transform="matrix(1.15312,0,0,1,-33.8391,-0.000516356)">
            <path d="M216.725,246.992L218.401,246.992L219.286,241.97C219.311,241.83 219.333,241.686 219.351,241.54C219.369,241.393 219.384,241.252 219.396,241.115L219.443,241.115C219.459,241.244 219.478,241.369 219.5,241.49C219.522,241.611 219.555,241.732 219.6,241.853L221.372,246.992L223.756,246.992L225.261,238.461L223.585,238.461L222.705,243.453C222.68,243.594 222.653,243.766 222.625,243.971C222.597,244.177 222.578,244.347 222.57,244.484L222.523,244.484C222.503,244.355 222.481,244.215 222.457,244.062C222.433,243.91 222.4,243.775 222.358,243.658L220.632,238.461L218.23,238.461L216.725,246.992Z" style="fill:white;fill-rule:nonzero;"/>
        </g>
        <g transform="matrix(0.999969,0,0,0.999969,0.460083,0.00756473)">
            <path d="M225.794,246.336C225.755,246.554 225.792,246.74 225.904,246.892C226.016,247.045 226.201,247.121 226.458,247.121C226.72,247.121 226.934,247.045 227.099,246.892C227.265,246.74 227.367,246.554 227.405,246.336C227.444,246.117 227.407,245.931 227.296,245.779C227.184,245.627 226.997,245.551 226.735,245.551C226.477,245.551 226.266,245.627 226.1,245.779C225.935,245.931 225.833,246.117 225.794,246.336Z" style="fill:white;fill-rule:nonzero;"/>
        </g>
        <g transform="matrix(1,0,0,0.734422,0,65.5956)">
            <path d="M229.223,246.992L230.424,246.992L231.111,243.095L235.67,243.095L234.983,246.992L236.184,246.992L237.688,238.461L236.487,238.461L235.848,242.088L231.289,242.088L231.929,238.461L230.728,238.461L229.223,246.992Z" style="fill:white;fill-rule:nonzero;"/>
        </g>
        <g transform="matrix(1,0,0,0.734422,0,65.5956)">
            <path d="M238.176,246.992L243.93,246.992L244.107,245.99L239.554,245.99L240.065,243.095L243.996,243.095L244.174,242.088L240.242,242.088L240.705,239.463L245.193,239.463L245.37,238.461L239.681,238.461L238.176,246.992Z" style="fill:white;fill-rule:nonzero;"/>
        </g>
        <g transform="matrix(1,0,0,0.734422,0,65.5956)">
            <path d="M245.325,246.992L250.821,246.992L250.998,245.99L246.703,245.99L248.03,238.461L246.829,238.461L245.325,246.992Z" style="fill:white;fill-rule:nonzero;"/>
        </g>
        <g transform="matrix(1,0,0,0.734422,0,65.5956)">
            <path d="M251.958,246.992L253.159,246.992L253.735,243.722L255.546,243.722C256.546,243.722 257.356,243.48 257.977,242.996C258.597,242.511 258.977,241.873 259.117,241.08C259.257,240.287 259.101,239.652 258.65,239.176C258.199,238.699 257.474,238.461 256.474,238.461L253.462,238.461L251.958,246.992ZM253.912,242.72L254.486,239.463L256.297,239.463C257.004,239.463 257.472,239.618 257.7,239.928C257.929,240.239 258.003,240.623 257.922,241.08C257.841,241.537 257.631,241.925 257.292,242.243C256.953,242.561 256.43,242.72 255.723,242.72L253.912,242.72Z" style="fill:white;fill-rule:nonzero;"/>
        </g>
    </g>
</svg>
