<?xml version="1.0" encoding="UTF-8" standalone="no"?>
<!DOCTYPE svg PUBLIC "-//W3C//DTD SVG 1.1//EN" "http://www.w3.org/Graphics/SVG/1.1/DTD/svg11.dtd">
<svg width="100%" height="100%" viewBox="0 0 5639 1427" version="1.1" xmlns="http://www.w3.org/2000/svg" xmlns:xlink="http://www.w3.org/1999/xlink" xml:space="preserve" xmlns:serif="http://www.serif.com/" style="fill-rule:evenodd;clip-rule:evenodd;stroke-linejoin:round;stroke-miterlimit:2;">
    <path d="M1027.13,1116.6C782.081,1312.31 423.493,1272.18 227.779,1027.13C32.065,782.081 72.201,423.493 317.248,227.779C562.296,32.065 920.884,72.201 1116.6,317.248C1312.31,562.296 1272.18,920.884 1027.13,1116.6" style="fill:white;fill-rule:nonzero;"/>
    <g>
        <clipPath id="_clip1">
            <path d="M1027.13,1116.6C782.081,1312.31 423.493,1272.18 227.779,1027.13C32.065,782.081 72.201,423.493 317.248,227.779C562.296,32.065 920.884,72.201 1116.6,317.248C1312.31,562.296 1272.18,920.884 1027.13,1116.6"/>
        </clipPath>
        <g clip-path="url(#_clip1)">
            <g id="Center">
                <path d="M501.595,318.323C630.982,188.936 841.074,188.936 970.461,318.323C1099.85,447.71 1099.85,657.802 970.461,787.189C841.074,916.576 630.982,916.576 501.595,787.189C372.208,657.802 372.208,447.71 501.595,318.323Z" style="fill:rgb(173,31,42);"/>
                <path d="M1130.65,215.037L1219.39,326.139L219.466,1124.75L130.731,1013.65L1130.65,215.037Z" style="fill:rgb(173,31,42);"/>
                <path d="M865.353,714.641C776.07,785.95 645.418,771.326 574.109,682.043C502.8,592.759 517.424,462.107 606.707,390.798C695.991,319.49 826.643,334.113 897.952,423.397C969.261,512.68 954.637,643.332 865.353,714.641" style="fill:white;fill-rule:nonzero;"/>
            </g>
        </g>
    </g>
    <path d="M420.372,224.665L691.868,562.4L383.13,810.586L263.921,662.293C179.871,557.738 196.52,404.614 301.075,320.565L420.372,224.665Z" style="fill:white;fill-rule:nonzero;"/>
    <path d="M631.803,448.531C689.327,391.008 782.73,391.008 840.253,448.531C897.777,506.054 897.777,599.458 840.253,656.981C782.73,714.504 689.327,714.504 631.803,656.981C574.28,599.458 574.28,506.054 631.803,448.531Z" style="fill:rgb(173,31,42);"/>
    <path d="M2338.49,650.297L2167.98,650.297L2068.67,800.59L2040.76,839.149L2073.5,650.297L1942.54,650.297L1853.77,1162.26L1984.73,1162.26L2007.58,1037.02L2053.13,992.148L2094.59,1162.26L2242.69,1162.26L2156.19,881.942L2338.49,650.297Z" style="fill:white;fill-rule:nonzero;"/>
    <path d="M3414.71,650.297L3325.5,1162.26L3198.5,1162.26L3122.47,848.929L3068.42,1162.26L2937.47,1162.26L3026.24,650.297L3154.12,650.297L3229.7,963.627L3283.32,650.297L3414.71,650.297Z" style="fill:white;fill-rule:nonzero;"/>
    <path d="M3437.08,1122.67C3437.89,1108.74 3443.41,1096.56 3453.66,1086.12C3463.89,1075.68 3475.97,1070.24 3489.91,1069.84C3505.05,1069.43 3517.44,1074.46 3527.06,1084.9C3536.69,1095.34 3540.88,1107.93 3539.66,1122.67C3538.42,1137.01 3532.58,1149.09 3522.14,1158.92C3511.7,1168.73 3499.31,1173.85 3484.99,1174.26C3470.24,1174.67 3458.27,1169.85 3449.05,1159.82C3439.83,1149.79 3435.85,1137.42 3437.08,1122.67Z" style="fill:white;fill-rule:nonzero;"/>
    <path d="M4208.56,646.072C4206.92,617.838 4201.5,591.744 4192.28,567.806C4183.06,543.869 4168.53,524.338 4148.67,509.197C4128.8,494.072 4101.67,486.088 4067.28,485.26C4029.18,484.447 3995.61,492.744 3966.55,510.15C3937.47,527.556 3912.8,550.791 3892.53,579.869C3891.59,581.22 3890.66,582.582 3889.74,583.945L3953.03,218.26L3885.47,218.26L3721.45,1162.26L3789.64,1162.26L3871.02,692.075C3880.58,670.591 3892.05,650.178 3905.42,630.853C3922.42,606.291 3942.68,586.416 3966.23,571.26C3989.78,556.103 4016.7,548.947 4047.01,549.76C4079.76,550.588 4103.11,560.51 4117.03,579.525C4130.95,598.556 4138.84,621.666 4140.69,648.885C4142.53,676.103 4142.01,702.588 4139.15,728.353L4067.28,1162.26L4134.23,1162.26L4207.33,729.541C4209.78,702.135 4210.19,674.306 4208.56,646.072Z" style="fill:white;fill-rule:nonzero;"/>
    <path d="M4794.21,675.931C4791.96,641.744 4784.79,610.541 4772.71,582.291C4760.62,554.041 4742.09,531.119 4717.12,513.51C4692.13,495.916 4659.16,486.494 4618.23,485.26C4574.41,483.619 4536.02,491.791 4503.05,509.791C4470.09,527.791 4442.43,551.931 4420.12,582.197C4397.8,612.478 4379.79,646.322 4366.07,683.744C4352.35,721.166 4343.04,758.9 4338.13,796.931L4328.91,873.01C4324.82,909.416 4324.91,945.322 4329.21,980.697C4333.51,1016.07 4343.13,1048.18 4358.09,1077.03C4373.02,1105.87 4394.32,1129.07 4421.96,1146.65C4449.6,1164.23 4484.73,1173.43 4527.32,1174.26C4553.52,1174.67 4578.8,1171.7 4603.18,1165.35C4627.54,1159.01 4650.37,1149.18 4671.66,1135.87C4692.94,1122.56 4711.99,1105.87 4728.79,1085.81L4697.46,1039.73C4674.12,1061.85 4648.94,1079.35 4621.91,1092.26C4594.88,1105.17 4565.19,1110.99 4532.85,1109.76C4500.49,1108.95 4474.59,1101.28 4455.13,1086.76C4435.68,1072.24 4421.24,1053.34 4411.84,1030.03C4402.41,1006.71 4396.79,981.463 4394.94,954.275C4393.1,927.088 4393.6,900.197 4396.48,873.619L4401.39,835.26L4783.46,835.26L4790.84,778.15C4795.34,744.181 4796.46,710.119 4794.21,675.931ZM4727.57,754.181L4724.49,771.369L4410.25,771.369C4414,750.655 4419.12,729.735 4425.65,708.619C4434.87,678.775 4447.46,651.478 4463.43,626.728C4479.4,601.994 4499.76,582.463 4524.54,568.15C4549.32,553.838 4578.91,547.306 4613.32,548.525C4650.57,550.166 4677.91,561.728 4695.32,583.213C4712.73,604.713 4723.37,631.01 4727.26,662.103C4731.13,693.197 4731.24,723.9 4727.57,754.181Z" style="fill:white;fill-rule:nonzero;"/>
    <path d="M5038.34,218.26L4874.33,1162.26L4940.67,1162.26L5105.3,218.26L5038.34,218.26Z" style="fill:white;fill-rule:nonzero;"/>
    <path d="M5630.46,696.135C5630.05,660.166 5624.73,626.353 5614.49,594.681C5604.24,563.01 5587.04,537.056 5562.88,516.822C5538.73,496.603 5505.55,486.072 5463.38,485.26C5428.57,484.447 5397.24,491.088 5369.4,505.181C5341.55,519.275 5317.38,538.494 5296.91,562.806C5295.06,565.014 5293.24,567.255 5291.44,569.512L5301.23,497.26L5239.18,497.26L5079.48,1418.26L5147.04,1418.26L5207.81,1066.45C5212.88,1077.83 5218.82,1088.64 5225.66,1098.87C5240.4,1120.93 5259.23,1138.82 5282.16,1152.51C5305.1,1166.18 5332.54,1173.45 5364.49,1174.26C5408.3,1175.88 5445.35,1167.2 5475.66,1148.21C5505.96,1129.21 5530.63,1104.18 5549.68,1073.12C5568.71,1042.06 5583.66,1007.84 5594.52,970.447C5605.37,933.056 5613.05,896.385 5617.55,860.416L5625.55,799.103C5629.23,766.416 5630.87,732.103 5630.46,696.135ZM5563.82,719.478C5563.19,747.666 5561.66,773.806 5559.21,797.9L5551.84,861.01C5547.74,889.603 5541.59,918.822 5533.4,948.635C5525.21,978.447 5513.63,1005.82 5498.69,1030.73C5483.76,1055.63 5464.3,1075.56 5440.35,1090.46C5416.38,1105.37 5387.01,1112.01 5352.19,1110.37C5324.76,1109.56 5300.3,1102.1 5278.8,1088.01C5257.3,1073.92 5240.4,1055.43 5228.12,1032.56C5223.95,1024.8 5220.53,1016.75 5217.83,1008.44L5280.01,648.467C5290.56,631.245 5302.95,615.709 5317.18,601.853C5333.96,585.51 5353.01,572.65 5374.3,563.244C5395.6,553.853 5418.74,549.353 5443.73,549.76C5476.48,550.572 5501.57,559.26 5518.98,575.806C5536.38,592.353 5548.35,613.385 5554.91,638.916C5561.46,664.447 5564.43,691.291 5563.82,719.478Z" style="fill:white;fill-rule:nonzero;"/>
    <path d="M1887.33,477.369C1875.02,451.297 1856.63,430.499 1832.18,414.967C1807.71,399.442 1778.78,391.236 1745.38,390.357L1564.77,389.918L1476,901.881L1606.96,901.881L1635.39,737.718L1699.68,737.965C1725.75,737.965 1750.51,734.229 1773.95,726.759C1797.38,719.288 1818.4,708.233 1837.01,693.58C1855.61,678.934 1870.7,660.916 1882.27,639.527C1893.84,618.145 1900.51,593.824 1902.27,566.578C1904.61,533.179 1899.63,503.448 1887.33,477.369ZM1772.19,567.457C1770.14,579.473 1766.18,590.02 1760.33,599.097C1754.46,608.182 1746.92,615.357 1737.69,620.631C1728.47,625.904 1717.55,628.836 1704.95,629.42L1654.23,628.973L1676.83,498.463L1740.55,498.902C1752.26,500.076 1760.69,504.395 1765.82,511.866C1770.94,519.337 1773.73,528.126 1774.17,538.233C1774.61,548.341 1773.95,558.084 1772.19,567.457Z" style="fill:white;fill-rule:nonzero;"/>
    <path d="M2986.84,389.918L2811.5,389.918L2675.27,723.902L2655.05,389.918L2484.54,389.918L2395.78,901.881L2527.61,901.881L2542.11,817.066L2571.96,573.305L2604.95,901.881L2691.53,901.881L2830.15,592.492L2782.93,804.761L2766.23,901.881L2897.63,901.881L2986.84,389.918Z" style="fill:white;fill-rule:nonzero;"/>
</svg>
