<?xml version="1.0" encoding="UTF-8"?><svg id="Layer_1" xmlns="http://www.w3.org/2000/svg" xmlns:xlink="http://www.w3.org/1999/xlink" viewBox="0 0 5639.52122417591363 1427.259532013237731"><defs><style>.cls-1{fill:none;}.cls-2{clip-path:url(#clippath);}.cls-3,.cls-4{fill:#fff;}.cls-5{fill:#ad1f2a;}.cls-4{stroke:#ad1f2a;stroke-miterlimit:10;stroke-width:18px;}</style><clipPath id="clippath"><path class="cls-1" d="m1027.128497448112284,1116.597756373239463c-245.047324204432698,195.713976114320758-603.635507377873182,155.578066612505609-799.34948349219485-89.469257591928908C32.065037841596677,782.081174576876947,72.200947343418193,423.492991403444648,317.248271547850891,227.7790152891248c245.047324204434517-195.713976114323486,603.635507377869544-155.578066612515613,799.349483492190302,89.469257591917994,195.713976114322577,245.047324204434517,155.578066612505609,603.635507377875911-89.469257591928908,799.349483492196669"/></clipPath></defs><circle class="cls-5" cx="672.188379208959532" cy="672.188379208962942" r="672.163282290233383"/><path class="cls-3" d="m1027.128497448112284,1116.597756373239463c-245.047324204432698,195.713976114320758-603.635507377873182,155.578066612505609-799.34948349219485-89.469257591928908C32.065037841596677,782.081174576876947,72.200947343418193,423.492991403444648,317.248271547850891,227.7790152891248c245.047324204434517-195.713976114323486,603.635507377869544-155.578066612515613,799.349483492190302,89.469257591917994,195.713976114322577,245.047324204434517,155.578066612505609,603.635507377875911-89.469257591928908,799.349483492196669"/><g class="cls-2"><g id="Center"><circle class="cls-5" cx="736.028335828542822" cy="552.75592767724811" r="331.538182283732851" transform="translate(-175.279756382912183 682.349090285417446) rotate(-45.000000000000014)"/><rect class="cls-5" x="35.209972376216228" y="598.801104969187008" width="1279.698596470530902" height="142.18873294117077" transform="translate(-270.4717653306393 567.738623581981415) rotate(-38.613602367216764)"/><path class="cls-3" d="m865.35349922887599,714.641052723363828c-89.283447232714934,71.308750323386448-219.935717093600033,56.685157228555909-291.244467416993757-32.59829000416903-71.308750323386448-89.283447232714934-56.685157228555909-219.935717093601852,32.598290004159026-291.2444674169883,89.283447232725848-71.308750323393724,219.935717093612766-56.685157228562275,291.244467416998305,32.598290004152659,71.308750323392815,89.28344723272312,56.685157228561366,219.935717093610037-32.598290004163573,291.244467417004671"/></g></g><path class="cls-3" d="m185.085887447417917,319.56289346511295h433.329812404439053v396.126071378072481h-190.267383645350662c-134.149806322143434,0-243.062428759088391-108.912622436944957-243.062428759088391-243.062428759088391v-153.06364261898409h0Z" transform="translate(553.474948982047977 -119.806485631509759) rotate(51.205140989216567)"/><circle class="cls-5" cx="736.028335828545778" cy="552.7559276772472" r="147.396389469933297" transform="translate(-175.279756382910819 682.349090285419379) rotate(-45.000000000000014)"/><polygon class="cls-4" points="2338.490521725337203 650.296641388237731 2167.982709225337203 650.296641388237731 2068.666302975337203 800.589610138237731 2040.755048092524703 839.149180450737731 2073.500287350337203 650.296641388237731 1942.543256100337203 650.296641388237731 1853.773724850337203 1162.259532013237731 1984.730756100337203 1162.259532013237731 2007.582318600337203 1037.015391388237731 2007.582318600337203 1037.015391388237731 2053.127240475337203 992.147715606987731 2094.594037350337203 1162.259532013237731 2242.689740475337203 1162.259532013237731 2156.187238033930953 881.942149200737731 2338.490521725337203 650.296641388237731"/><path class="cls-4" d="m3414.710736569087203,650.296641388237731l-89.208984375,511.962890625h-127.0009765625l-76.025390625-313.330078125-54.05322265625,313.330078125h-130.95703125l88.76953125-511.962890625h127.88134765625l75.5859375,313.330078125,53.61328125-313.330078125h131.3955078125Z"/><path class="cls-4" d="m3437.079877194087203,1122.665782013237731c.8125-13.921875,6.328125-26.109375,16.578125-36.546875,10.234375-10.4375,22.3125-15.875,36.25-16.28125,15.140625-.40625,27.53125,4.625,37.15625,15.0625s13.8125,23.03125,12.59375,37.765625c-1.234375,14.34375-7.078125,26.421875-17.515625,36.25-10.4375,9.8125-22.828125,14.9375-37.15625,15.34375-14.75.40625-26.71875-4.40625-35.9375-14.4375s-13.203125-22.40625-11.96875-37.15625Z"/><path class="cls-4" d="m4208.560345944087203,646.072032013237731c-1.640625-28.234375-7.0625-54.328125-16.28125-78.265625s-23.75-43.46875-43.609375-58.609375c-19.875-15.125-47-23.109375-81.390625-23.9375-38.09375-.8125-71.671875,7.484375-100.734375,24.890625-29.078125,17.40625-53.75,40.640625-74.015625,69.71875-.9423828125,1.35107421875-1.867919921875,2.71337890625-2.7939453125,4.07568359375l63.2939453125-365.68505859375h-67.5625l-164.015625,944h68.1875l81.381103515625-470.1845703125c9.564208984375-21.48388671875,21.025146484375-41.89697265625,34.400146484375-61.2216796875,17-24.5625,37.265625-44.4375,60.8125-59.59375s50.46875-22.3125,80.78125-21.5c32.75.828125,56.09375,10.75,70.015625,29.765625,13.921875,19.03125,21.8125,42.140625,23.65625,69.359375s1.328125,53.703125-1.53125,79.46875l-71.875,433.90625h66.953125l73.09375-432.71875c2.453125-27.40625,2.859375-55.234375,1.234375-83.46875Z"/><path class="cls-4" d="m4794.210736569087203,675.931407013237731c-2.25-34.1875-9.421875-65.390625-21.5-93.640625-12.09375-28.25-30.625-51.171875-55.59375-68.78125-24.984375-17.59375-57.953125-27.015625-98.890625-28.25-43.8125-1.640625-82.203125,6.53125-115.171875,24.53125s-60.625,42.140625-82.9375,72.40625c-22.3125,30.28125-40.328125,64.125-54.046875,101.546875s-23.03125,75.15625-27.9375,113.1875l-9.21875,76.078125c-4.09375,36.40625-4,72.3125.296875,107.6875s13.921875,67.484375,28.875,96.328125c14.9375,28.84375,36.234375,52.046875,63.875,69.625s62.765625,26.78125,105.359375,27.609375c26.203125.40625,51.484375-2.5625,75.859375-8.90625,24.359375-6.34375,47.1875-16.171875,68.484375-29.484375,21.28125-13.3125,40.328125-30,57.125-50.0625l-31.328125-46.078125c-23.34375,22.125-48.515625,39.625-75.546875,52.53125s-56.71875,18.734375-89.0625,17.5c-32.359375-.8125-58.265625-8.484375-77.71875-23s-33.890625-33.421875-43.296875-56.734375c-9.421875-23.3125-15.046875-48.5625-16.890625-75.75s-1.34375-54.078125,1.53125-80.65625l4.9169921875-38.359375h382.0673828125l7.375-57.109375c4.5-33.96875,5.625-68.03125,3.375-102.21875Zm-66.640625,78.25l-3.078125,17.1875h-314.239013671875c3.7490234375-20.7138671875,8.872314453125-41.6337890625,15.395263671875-62.75,9.21875-29.84375,21.8125-57.140625,37.78125-81.890625,15.96875-24.734375,36.328125-44.265625,61.109375-58.578125s54.375-20.84375,88.78125-19.625c37.25,1.640625,64.59375,13.203125,82,34.6875,17.40625,21.5,28.046875,47.796875,31.9375,78.890625,3.875,31.09375,3.984375,61.796875.3125,92.078125Z"/><polygon class="cls-4" points="5038.341595944087203 218.259532013237731 4874.325970944087203 1162.259532013237731 4940.669720944087203 1162.259532013237731 5105.294720944087203 218.259532013237731 5038.341595944087203 218.259532013237731"/><path class="cls-4" d="m5630.460736569087203,696.134532013237731c-.40625-35.96875-5.734375-69.78125-15.96875-101.453125-10.25-31.671875-27.453125-57.625-51.609375-77.859375-24.15625-20.21875-57.328125-30.75-99.5-31.5625-34.8125-.8125-66.140625,5.828125-93.984375,19.921875s-52.015625,33.3125-72.484375,57.625c-1.858642578125,2.2080078125-3.677490234375,4.44873046875-5.477294921875,6.70556640625l9.789794921875-72.25244140625h-62.046875l-159.703125,921h67.5625l60.7685546875-351.806640625c5.07373046875,11.375,11.017578125,22.1865234375,17.8564453125,32.416015625,14.734375,22.0625,33.5625,39.953125,56.5,53.640625,22.9375,13.671875,50.375,20.9375,82.328125,21.75,43.8125,1.625,80.859375-7.0625,111.171875-26.046875,30.296875-19,54.96875-44.03125,74.015625-75.09375,19.03125-31.0625,33.984375-65.28125,44.84375-102.671875,10.84375-37.390625,18.53125-74.0625,23.03125-110.03125l8-61.3125c3.671875-32.6875,5.3125-67,4.90625-102.96875Zm-66.640625,23.34375c-.625,28.1875-2.15625,54.328125-4.609375,78.421875l-7.375,63.109375c-4.09375,28.59375-10.25,57.8125-18.4375,87.625s-19.765625,57.1875-34.703125,82.09375-34.390625,44.828125-58.34375,59.734375c-23.96875,14.90625-53.34375,21.546875-88.15625,19.90625-27.4375-.8125-51.890625-8.265625-73.390625-22.359375s-38.40625-32.578125-50.6875-55.453125c-4.164794921875-7.75732421875-7.58203125-15.80224609375-10.287841796875-24.12158203125l62.178466796875-359.96826171875c10.55615234375-17.2216796875,22.945068359375-32.75732421875,37.171875-46.61328125,16.78125-16.34375,35.828125-29.203125,57.125-38.609375,21.296875-9.390625,44.4375-13.890625,69.421875-13.484375,32.75.8125,57.84375,9.5,75.25,26.046875s29.375,37.578125,35.9375,63.109375c6.546875,25.53125,9.515625,52.375,8.90625,80.5625Z"/><path class="cls-4" d="m1887.327435787837203,477.368907013237731c-12.3046875-26.07177734375-30.69287109375-46.8701171875-55.1513671875-62.40234375-24.46533203125-15.52490234375-53.3935546875-23.73046875-86.7919921875-24.609375l-180.615234375-.439453125-88.76953125,511.962890625h130.95703125l28.43353271484375-164.1630859375,64.29107666015625.2470703125c26.07177734375,0,50.82568359375-3.7353515625,74.267578125-11.2060546875,23.43505859375-7.470703125,44.45361328125-18.525390625,63.0615234375-33.1787109375,18.60107421875-14.64599609375,33.68701171875-32.66357421875,45.263671875-54.052734375,11.56982421875-21.3818359375,18.2373046875-45.703125,19.9951171875-72.94921875,2.34130859375-33.3984375-2.63671875-63.1298828125-14.94140625-89.208984375Zm-115.13671875,90.087890625c-2.05322265625,12.0166015625-6.00830078125,22.5634765625-11.865234375,31.640625-5.86376953125,9.08447265625-13.4033203125,16.259765625-22.6318359375,21.533203125s-20.14599609375,8.20556640625-32.7392578125,8.7890625l-50.72967529296875-.44677734375,22.60467529296875-130.51025390625,63.720703125.439453125c11.71435546875,1.17431640625,20.13916015625,5.4931640625,25.2685546875,12.9638671875,5.12255859375,7.470703125,7.91015625,16.259765625,8.349609375,26.3671875s-.2197265625,19.85107421875-1.9775390625,29.2236328125Z"/><polygon class="cls-4" points="2920.921185787837203 389.917735138237731 2875.218060787837203 389.917735138237731 2811.497357662837203 389.917735138237731 2675.266888912837203 723.902110138237731 2655.052045162837203 389.917735138237731 2594.407513912837203 389.917735138237731 2553.538373287837203 389.917735138237731 2484.544232662837203 389.917735138237731 2395.774701412837203 901.880625763237731 2527.610638912837203 901.880625763237731 2542.112592037837203 817.066172638237731 2571.955792721430953 573.304942169487731 2604.954388912837203 901.880625763237731 2691.526654537837203 901.880625763237731 2830.153729733149703 592.492442169487731 2782.932904537837203 804.761485138237731 2766.233685787837203 901.880625763237731 2897.630170162837203 901.880625763237731 2986.839154537837203 389.917735138237731 2920.921185787837203 389.917735138237731"/></svg>